<svg xmlns="http://www.w3.org/2000/svg" viewBox="0 0 90 85"><path d="M87.3 32.9c-2.4.9-4.7.4-7.2-.6-2.6-1-5-2.4-7.6-3.5-2.6-1.1-5.4-1.9-8.3-1.4-3.2.5-5.5 2.7-8 4.5-1.1.7-2.2 1.5-3.5 1.6-1.5.1-2.9-.6-4.2-1.3-1.5-.9-2.9-1.9-4.5-2.7-1.7-.8-3.5-1.2-5.4-1.4-3.6-.3-7.2.8-10 2.9-1.3 1-2.6 2.1-3.9 3.1-1.1.8-2.4 1.7-3.8 1.9-3.4.5-5.9-3.1-7.9-5.4-2.8-3.1-6.8-5.6-11-3.8-.9.4-1 1.6-.6 2.4.5.9 1.5 1 2.4.6 1.3-.6 2.9.1 4 .8 1.4.9 2.6 2.2 3.7 3.5 2.2 2.5 4.7 5 8.2 5.4 3.4.3 6.3-1.9 8.8-3.9 2.6-2.1 5.1-3.8 8.5-3.9 1.7-.1 3.4.2 5 .8 1.5.6 2.9 1.6 4.3 2.4 1.4.9 3 1.7 4.6 2 1.8.3 3.5 0 5.1-.7 2.7-1.2 4.6-3.7 7.3-4.9 2.4-1 4.9-.4 7.3.5 5.6 2.1 11.4 6.8 17.7 4.5.9-.3 1.5-1.2 1.2-2.1-.3-.9-1.3-1.6-2.2-1.3zm-.5 22.2c-3.5-.3-6.4-2.7-9.3-4.4-3.2-1.9-7.1-3.4-10.9-2.5-1.8.4-3.3 1.5-4.6 2.6-1.1 1-2.1 2.1-3.3 2.9-2.3 1.5-4.7 1.1-7.2.1-2.7-1.2-5.2-2.8-8-3.9-2.8-1.2-5.8-1.5-8.8-.7-2.9.8-5.5 2.5-8.1 3.9-2.3 1.2-4.8 2.5-7.4 2.1-3.1-.4-5.6-2.7-8-4.4-2.6-1.9-5.6-3.6-8.9-3.3-.9.1-1.7.7-1.7 1.7 0 .9.8 1.8 1.7 1.7 2.6-.2 4.8 1.2 7 2.7 2.4 1.7 4.6 3.5 7.4 4.5 6.2 2.2 11.5-2.3 16.8-4.8 2.5-1.2 5-1.5 7.6-.7 2.8.8 5.2 2.4 7.8 3.7 2.7 1.3 5.5 2.2 8.5 1.6 3.3-.7 5.2-3.3 7.8-5.3 3.3-2.5 7.2-1.1 10.5.8 3.6 2.1 7 4.6 11.3 5 .9.1 1.7-.9 1.7-1.7-.2-.9-1-1.5-1.9-1.6z" fill="#666"/></svg>