<svg id="Layer_1" data-name="Layer 1" xmlns="http://www.w3.org/2000/svg" viewBox="0 0 48 48"><defs><style>.cls-1{fill:none;stroke:#666;stroke-linecap:round;stroke-linejoin:round;stroke-width:1.5px}</style></defs><path class="cls-1" d="M10.36 38.97c-1.7-6.6-3.27-11.54-3.09-18.35.06-2.28.41-4.74 2-6.37 1.37-1.41 2.93-2.22 4.89-2.45 1.91-.22 3.53-.21 5.14.84 2.56 1.66 3.09 5.21 2.69 8.23-.4 3.02-.54 6.32-.21 9.35.42 3.79 3.01 7.46 1.96 11.13-.81 2.82-3.88 4.82-6.79 4.45-4.06-.51-5.91-4.18-6.6-6.84zM8.2 29.79c4.24-1.65 8.83-2.39 13.37-2.16"/><path class="cls-1" d="M10.08 29.42c.73 3.49 1.47 7 2.71 10.36.49 1.34 1.13 2.73 2.34 3.49.96.61 2.17.72 3.3.56 1.08-.15 2.23-1.07 2.85-1.96.61-.87.62-1.52.5-2.57-.22-1.95-.91-3.81-1.46-5.7s-.95-3.88-.52-5.8m19.27 1.17c1.7-6.6 3.26-11.54 3.08-18.35-.06-2.28-.42-4.74-2.01-6.37-1.37-1.41-2.94-2.22-4.89-2.44-1.91-.22-3.53-.2-5.14.84-2.56 1.66-3.09 5.21-2.68 8.23s.54 6.32.21 9.35c-.42 3.79-3.01 7.47-1.95 11.13.81 2.82 3.88 4.81 6.79 4.45 4.06-.51 5.91-4.18 6.59-6.84zm2.15-9.18a32.472 32.472 0 0 0-13.37-2.16"/><path class="cls-1" d="M39.34 19.42c-.73 3.5-1.47 7.01-2.7 10.36-.49 1.34-1.13 2.73-2.34 3.49-.96.61-2.17.72-3.3.57-1.08-.15-2.23-1.07-2.85-1.96-.61-.87-.62-1.52-.5-2.57.22-1.95.91-3.81 1.46-5.7s.95-3.88.52-5.8m2.1-7.37c2.19-.5 4.51-.41 6.64.28M11.43 20.99a9.612 9.612 0 0 1 5.76-.82"/></svg>