<svg xmlns="http://www.w3.org/2000/svg" viewBox="0 0 90 85"><path fill="#666565" d="M84.9 29.3c-.1-1.4-.4-2.8-1.4-3.9-1.5-1.5-4.1-1.2-6.1-1.2h-2c0-.7-.1-1.5-.2-2.2-.3-1.9-1.2-3.8-3.1-4.4-1-.3-2.2-.2-3.3-.2h-2.9c-1.8 0-3 1.2-3.7 2.7-.1.1-.1.2-.2.4-.6 1.9-.4 4.2-.4 6.2 0 2.2-.1 4.3-.1 6.5v1.1c-.7-.2-1.4-.2-2-.3-1-.1-2.1-.2-3.1-.4-4.6-.5-9.3-.9-14-1-2.3-.1-4.6-.1-6.9 0-1.2 0-2.4.1-3.6.2-1.1.1-2.1.1-3.1.5-.1 0-.2.1-.3.2v-3.7c0-1.2-.1-2.4-.1-3.6 0-1.1 0-2.2-.3-3.3 0-.1 0-.2-.1-.3 0-.1-.1-.3-.2-.4-.7-1.5-1.8-2.7-3.6-2.7h-2.3c-2.4 0-5.2-.3-6.5 2.3-.7 1.4-.8 3-.9 4.5h-1.4c-1.5 0-3.2-.2-4.7.1-3.4.7-3.4 4.5-3.5 7.3-.1 3.4-.1 6.9-.1 10.3 0 3.4 0 6.8.2 10.2.1 2.9.9 5.8 3.8 7.2 1.7.8 4.2 1.2 6.2.6.5 2.6 1.7 4.9 4.7 5.4 1.5.3 3.3.2 4.7-.3 1.6-.5 2.8-2 3.1-3.6.3-2 .3-4.1.4-6.1.1-2 .2-4.1.3-6.1.6.5 1.3.9 2.2 1.1 1.8.4 3.8.4 5.6.5 2.2.1 4.3.2 6.5.2 4.3.1 8.7 0 13-.2 1.7-.1 3.6-.1 5.2-.7.5-.2 1-.5 1.4-.8.1 2.4.2 4.9.4 7.3.1 1.6 0 3.3 1 4.7 1.2 1.6 2.8 2 4.7 2.1 1.5.1 3.1-.1 4.4-.9 1.5-1 2.3-2.7 2.6-4.4v-.3c1.3.4 2.9.4 4.2.1 2.8-.5 4.9-2.6 5.4-5.4.3-1.6.3-3.2.3-4.9 0-1.7.1-3.4.1-5.1 0-3.5 0-6.9-.1-10.4 0-1.6-.1-3.2-.2-4.9m-24.3 8.3c-.1 0 0 0 0 0M11.9 58.8c-.8-.1-1.7-.3-2.3-.8-.8-.6-1-1.6-1.1-2.5-.3-2.8-.2-5.7-.3-8.5 0-3 0-5.9.1-8.9 0-1.5.1-3 .1-4.4 0-1.1-.1-2.4.3-3.4.3-.7.9-.6 1.6-.6h4.4c0 1.2-.1 2.5-.1 3.7-.1 4.3-.1 8.7-.1 13 0 3.9 0 7.8.2 11.7 0 .2-.1.3-.2.5-.6.4-2 .3-2.6.2M25 45.4c-.1 3.8-.3 7.5-.5 11.3l-.3 5.4c-.1 1-.1 1.6-1.3 1.9-1 .2-2.3.3-3.3-.1s-1.3-1.8-1.5-2.9c-.2-.9-.2-1.9-.2-2.9.1-.5.1-1 .2-1.5.1-1.7.3-3.4.4-5.1.3-3.8.5-7.5.5-11.3v-5.6c0-.9-.1-1.9-.1-2.8 0-1 0-2-.4-2.9v-.1c0-.1-.1-.2-.1-.3-.1-.2-.2-.4-.4-.6v-.5c0-.9 0-1.8.2-2.7.1-.5.2-1.2.5-1.6.3-.4 1.3-.3 1.9-.3h3c.7 0 1-.1 1.3.6.1.8.1 1.6.1 2.4 0 1 .1 2 .1 3 0 1.9.1 3.8.1 5.6-.1 3.7-.1 7.4-.2 11m36.4.2c-.1 1.1-.4 2.3-1.2 3-.9.8-2.2.9-3.4.9-3.7.2-7.5.3-11.2.3-3.8 0-7.6-.1-11.5-.3-1.2-.1-2.7.1-3.7-.5-1.1-.6-.9-2.2-.9-3.3v-4.5c0-1.1-.4-3.9.7-4.7.5-.3 1.4-.2 2-.3 1-.1 2-.1 2.9-.1 1.8-.1 3.6-.1 5.4 0 3.6.1 7.3.3 10.9.6 1.8.2 3.6.3 5.4.5.9.1 1.7.2 2.6.3.3 0 .6.1.9.1.1 0 .1 0 .2.1 0 0 .3.5.4.6l.3.9c.1.7.2 1.5.2 2.2.2 1.4.2 2.8 0 4.2m9.9 15.6c-.5.9-1.5 1-2.4 1-1 0-2.2 0-2.8-.8-.2-.3-.2-.5-.2-1.1-.1-1-.1-2-.2-2.9-.2-3.7-.4-7.4-.5-11.1-.2-4.2-.3-8.3-.3-12.5v-6.3c0-1 0-2 .1-3 0-1 0-2.1.2-3 .3-.7.4-.7 1.1-.6h4.5c1 .1 1.1 1.3 1.2 2.1.1.9.1 1.9.2 2.8-.1.2-.3.4-.4.6-.1.1-.1.2-.1.3v.1c-.3.8-.3 1.6-.3 2.4 0 .9-.1 1.8-.1 2.6 0 1.7-.1 3.3 0 5 0 3.4.2 6.8.4 10.2.1 1.7.2 3.3.3 5 .1 1.4.1 2.8.4 4.1v.7c-.3 1.5-.4 3.1-1.1 4.4m10.4-9.7c-.1 1.9 0 4.2-2.1 5-.9.4-2 .4-2.9.3-.8-.1-1-.3-1.1-.9v-1.8c0-2.2.1-4.3.1-6.5V34.4c0-2.2-.1-4.3-.1-6.5v-.3c.6-.1 1.3 0 1.8 0h2c.5 0 1.1-.1 1.6.1.6.2.6 1.3.7 1.8.1 1.4.1 2.9.2 4.3.1 2.9.1 5.8.1 8.7-.1 3.1-.2 6-.3 9"/></svg>