<svg xmlns="http://www.w3.org/2000/svg" viewBox="0 0 90 85"><g fill="#666"><path d="M88.8 46c-.8-3.5-1.6-7.1-4.8-9.2-1.6-1.1-3.5-1.9-5.2-2.7l-.9-.3c-.6-6.1-1.9-12.4-4.1-18.1-1.1-2.9-2.4-6.1-5.4-7.4-1.6-.7-3.3-.9-5.1-1-1.7-.1-3.5-.2-5.2-.3-7.3-.4-14.6-.6-22-.1-3.6.2-7.3.6-10.9 1.3-2.9.5-5.7 1.3-7.8 3.5-2.6 2.8-3.1 6.7-3.8 10.4-.7 3.7-1.2 7.5-1.7 11.2-.9.3-1.8.6-2.7 1-1.7.8-3.4 1.7-4.7 2.9-1.3 1.2-2.1 2.9-2.5 4.6-.5 1.9-.8 3.9-1 5.9-.3 2-.6 4-.5 6.1.1 1.8.4 3.6 1.2 5.2.7 1.4 1.6 2.7 3.1 3.1 1.3.4 2.6.3 4 .3-.2 2.3.1 4.6.5 6.8.5 2.6 1.6 5.1 3.6 6.9 2.4 2 5.3 2.8 8.3 2.2 3-.6 5.6-2.6 7-5.3 1.7-3.3 1.8-7 1.8-10.7h7.6c6.3 0 12.6.1 18.9.1-.5 5 .1 11 4.4 14.2 4.9 3.7 12 1.7 14.7-3.6 1.7-3.2 1.8-6.8 1.8-10.4h3.3c.8 0 1.9.2 2.6-.3 2-1.2 3.9-2.9 4.9-5 1.8-3.7 1.4-7.6.6-11.3m-71-26.1c.3-1.4.5-3 1.2-4.3 1.2-2.2 3.3-3.1 5.6-3.6 3.1-.7 6.4-1 9.6-1.3 6.8-.5 13.6-.5 20.4-.2 3.2.1 6.5.2 9.8.5 1.2.1 2.5.3 3.4 1.2.9.9 1.4 2 1.9 3.2 1.2 3 2.1 6.1 2.8 9.2.6 2.8 1.2 5.6 1.5 8.4h-.1c-8.3-.7-16.7-.6-25-.5-3.9.1-7.8.3-11.7.3-3.6 0-7.2-.1-10.8-.1-3.5-.1-7-.1-10.5-.1h-.1c.3-2.7.7-5.4 1.2-8 .2-1.6.5-3.2.8-4.7m-3.3 16.4c.1 0 .1 0 0 0m6.8 38.1c-2 .6-4.1.3-5.7-1-1.6-1.3-2.2-3-2.6-5-.4-2-.6-4.1-.4-6.1h1.8c4-.1 8-.1 12-.1 0 4.3 0 10.6-5.1 12.2m47.7-.1c-1.9.7-4 .4-5.7-.7-1.6-1.1-2.3-2.8-2.7-4.6-.5-2.2-.5-4.4-.3-6.6h.9c3.8 0 7.7.1 11.5.1h1.2c-.1 4.1-.2 10.1-4.9 11.8m16-18.6c-.7 1.4-1.9 2.2-3.1 3.1-20.8-.2-41.6-.5-62.4-.3-2.8 0-5.7.1-8.5.1-1.4 0-2.9.2-4.3.1.3 0 .1 0 0 0-.2 0-.3-.1-.5-.1l-.3-.1c-1.7-1.9-1.8-4.7-1.6-7.1.2-3 .6-6.3 1.5-9.2.9-2.7 3.4-3.9 5.9-5 .6-.3 1.2-.4 1.8-.6.3-.1.6-.2 1-.3h1c5.8-.1 11.6.1 17.4.2 6.1.1 12.3-.2 18.4-.3 7.5-.1 15-.1 22.5.5 1.1.2 2.2.5 3.3.7.7.2 1.7.8 2.6 1.2 1.1.6 2.4 1.1 3.3 2 .8.8 1.1 1.9 1.4 3 .4 1.4.8 2.8 1.1 4.2.4 2.6.7 5.5-.5 7.9"/><path d="M23.3 41.7c-1.7-.3-3.3.1-4.6 1.2-.7.7-1.2 1.5-1.7 2.4-.1.1-.1.2-.1.4-.9 2.2-.5 4.6 1 6.5 1.5 1.8 4.1 2.4 6.3 1.6 1.2-.5 2.2-1.2 3-2.2.8-1.1 1.1-2.5 1.1-3.8 0-1.5-.3-3.1-1.4-4.2-.9-1-2.3-1.7-3.6-1.9m-1.7 3.7c-.1 0-.2 0 0 0m2.8 3.8c0-.1 0-.1 0 0 0-.1 0 0 0 0m.3-1.1v.1c0 .2-.1.5-.2.7v.1l-.1.1c-.1.1-.1.2-.2.3 0 .1-.1.1-.2.2 0 0-.1.1-.2.1l-.1.1c-.1.1-.1 0 0 0-.1.1-.3.2-.4.3l-.1.1h-.1c-.2 0-.3.1-.5.1h-.9.1c-.1 0-.3-.1-.5-.2-.1 0-.1-.1-.2-.1 0 0-.1-.1-.2-.1l-.3-.3-.1-.1s0-.1-.1-.1h.1c-.1-.1-.1-.2-.2-.3 0-.1-.1-.1-.1-.2-.1-.2-.1-.4-.2-.6v-.8c0-.1 0-.2.1-.3 0-.1 0-.1.1-.2v-.1c.1-.2.2-.3.2-.5.1-.1.1-.2.2-.3 0-.1.1-.2.1-.2l.1-.1c.1-.1.2-.2.3-.4 0 0 .1 0 .1-.1l.1-.1s.2-.1.3-.1h.9c.1 0 .2.1.4.1.2.1.4.1.6.2.1 0 .1.1.1.1.1.1.2.1.4.2.1.1.2.1.3.2l.1.1.1.1c0 .1 0 .2.1.2 0 0 0 .1.1.2v1.6m47.8-6.2c-1.7-.3-3.3.1-4.6 1.2-.7.7-1.2 1.5-1.7 2.4-.1.1-.1.2-.1.4-.9 2.2-.5 4.6 1 6.5 1.5 1.8 4.1 2.4 6.3 1.6 1.2-.5 2.2-1.2 3-2.2.8-1.1 1.1-2.5 1.1-3.8 0-1.5-.3-3.1-1.4-4.2-.8-1-2.3-1.7-3.6-1.9m-1.7 3.7c-.1.1-.2.1 0 0m2.8 3.8c.1-.1.1-.1 0 0 .1-.1 0 0 0 0m.3-1.1v.1c0 .2-.1.5-.2.7v.1l-.1.1c-.1.1-.1.2-.2.3 0 .1-.1.1-.2.2-.1 0-.1.1-.2.1l-.1.1c-.1.1-.1 0 0 0-.1.1-.3.2-.4.3l-.1.1h-.1c-.2 0-.3.1-.5.1h-.9.1c-.1 0-.3-.1-.5-.2-.1 0-.1-.1-.2-.1 0 0-.1-.1-.2-.1l-.3-.3-.1-.1s0-.1-.1-.1h.1c-.1-.1-.1-.2-.2-.3 0-.1-.1-.1-.1-.2-.1-.2-.1-.4-.2-.6v-.8c0-.1 0-.2.1-.3 0-.1 0-.1.1-.2v-.1c.1-.2.2-.3.2-.5.1-.1.1-.2.2-.3 0-.1.1-.2.1-.2l.1-.1c.1-.1.2-.2.3-.4l.1-.1.1-.1s.2-.1.3-.1h1c.1 0 .2.1.4.1.2.1.4.1.6.2.1 0 .1.1.1.1.1.1.2.1.4.2.1.1.2.1.3.2l.1.1.1.1c0 .1 0 .2.1.2 0 0 0 .1.1.2v.9c-.1.4-.1.6-.1.7"/></g></svg>