<svg id="Layer_1" data-name="Layer 1" xmlns="http://www.w3.org/2000/svg" viewBox="0 0 48 48"><defs><style>.cls-1{fill:#666}.cls-2{fill:none;stroke:#666;stroke-linecap:round;stroke-linejoin:round;stroke-width:1.5px}</style></defs><path class="cls-2" d="M3.01 9.07v22.71c0 1.06.07 2.27.89 2.95.64.53 1.55.55 2.38.55 11.85-.04 23.7-.08 35.54-.11.99 0 2.14-.08 2.72-.89.38-.53.4-1.23.4-1.88.02-6.31.04-12.62.07-18.93 0-1.34-.06-2.86-1.06-3.76-.87-.79-2.16-.84-3.34-.84-11.36-.03-22.71-.06-34.07-.1-.72 0-1.47 0-2.15.25S3.1 9.85 3 9.07zm4.9 26.56c.16.52.02 1.08-.05 1.62s-.03 1.17.39 1.51c.24.2.57.27.88.32 1.43.22 2.9.22 4.33-.03l.15-3.37"/><path class="cls-2" d="M33.69 35.45c.16.6-.06 1.23-.18 1.84s-.06 1.36.46 1.69c.29.19.66.2 1.01.2 1.13.01 2.27.03 3.4.04.3 0 .65 0 .86-.23.19-.2.21-.51.21-.79.01-1.03.03-2.06.04-3.1M8.34 14.21c.26 4.63-.28 8.73-.02 13.36.04.72-.17 2.03.29 2.58.66.8 3.17.57 4.21.54 8.46-.23 16.66-.19 25.12-.41.46-.01.96-.04 1.29-.36.35-.35.37-.9.37-1.4-.04-4.01-.09-8.02-.13-12.03-.01-.98-.11-2.13-.94-2.66-.47-.3-1.07-.31-1.63-.3l-22.91.12c-1.92.01-3.86.02-5.65.77 0-.02 0-.04.01-.21zm-1.79 4.3l3.52.22M7 27.29l2.57.22"/><path class="cls-2" d="M30.12 19.2c-1.1.4-1.85 1.57-1.83 2.74s.76 2.28 1.79 2.83c1.1.58 2.51.53 3.55-.16s1.64-1.98 1.48-3.21-1.11-2.33-2.31-2.65c-.94-.25-1.88.16-2.68.45z"/><path class="cls-1" d="M15.05 19.74c1.29 0 1.29-2 0-2s-1.29 2 0 2zm3.64 0c1.29 0 1.29-2 0-2s-1.29 2 0 2zm4.08-.1c1.29 0 1.29-2 0-2s-1.29 2 0 2zm-7.51 3.86c1.29 0 1.29-2 0-2s-1.29 2 0 2zm3.54.21c1.29 0 1.29-2 0-2s-1.29 2 0 2zm4.08-.11c1.29 0 1.29-2 0-2s-1.29 2 0 2zm-7.4 3.65c1.29 0 1.29-2 0-2s-1.29 2 0 2zm3.64.11c1.29 0 1.29-2 0-2s-1.29 2 0 2zm4.08 0c1.29 0 1.29-2 0-2s-1.29 2 0 2z"/></svg>