<svg id="Layer_1" data-name="Layer 1" xmlns="http://www.w3.org/2000/svg" viewBox="0 0 48 48"><defs><style>.cls-1{fill:none;stroke:#666;stroke-linecap:round;stroke-linejoin:round;stroke-width:1.5px}</style></defs><path class="cls-1" d="M23.22 28.88c7.78.08 15.57.42 23.37.99-.39 2.32-.78 4.66-1.66 6.85s-2.31 4.23-4.34 5.43c-2.11 1.25-4.66 1.49-7.11 1.62-5.7.29-11.42.1-17.12-.09-2.32-.08-4.72-.17-6.82-1.17-2.36-1.12-4.08-3.29-5.16-5.65-1.08-2.36-1.59-4.94-2.28-7.49 3.11-.18 6.22-.31 9.34-.39"/><path class="cls-1" d="M23.16 27.49c.15 3.54.29 7.09.44 10.63.02.37.01.79-.26 1.04-.26.24-.65.24-1.01.22-2.78-.14-5.56-.29-8.35-.43-.5-.03-1.03-.06-1.42-.38-.51-.41-.59-1.15-.63-1.8-.17-2.93-.33-5.87-.51-8.69.31-.78 1.33-.92 2.17-.95l6.14-.21c1.22-.04 2.56-.04 3.41.57zm14.99-5.57c.48-.41.97-.83 1.57-1.05s1.32-.21 1.8.2c.59.49.64 1.35.65 2.11l.06 6.15m-16.75-7.42c.84.85 2.24 1.08 3.32.57 1.08-.51 1.79-1.71 1.73-2.89-.07-1.36-1.15-2.61-2.5-2.88s-2.83.47-3.43 1.7c-.59 1.23-.03 2.57.89 3.5zm-9.83-6.82c-.92-.87-.97-2.49-.11-3.41s2.5-.98 3.43-.13 1.01 2.47.15 3.41-2.51 1.04-3.48.13zM24 6.41c.06.21.39 1.32 1.02 1.57.63.24 1.37.09 1.91-.31.8-.6 1.12-1.76.68-2.65-.44-.89-1.62-1.36-2.53-.96-.91.4-1.3 1.63-1.08 2.35z"/></svg>