<svg xmlns="http://www.w3.org/2000/svg" viewBox="0 0 90 85"><path fill="#666" d="M66.7 63.3c2.4-4.1 3.7-8.7 4.5-13.5 4.3.5 8.5-.8 11.7-3.8 3.6-3.3 6.2-7.2 6.2-12.2 0-4.3-1.3-8.8-4.8-11.6C81 19.6 76.7 19 72.6 19c-.1-1.9-.3-3.9-.5-5.8s-.4-4.3-2.7-4.7c-.2-.1-.4-.1-.7-.1-14.6.1-29.2 0-43.8 0h-16c-1.5 0-3.5-.3-5 .3-2.2.9-2.1 3.3-2.2 5.3-.1 2.3-.3 4.7-.3 7-.2 4.6-.2 9.3-.1 13.9.2 8.5 1.1 17.3 5.3 24.9 3.2 5.8 8 10.2 14 12.6h-2.3c-5 0-10.1 0-15.1.1-2.8 0-2.8 4.4 0 4.4 17.5-.1 35-.2 52.5-.2 5 0 10.1 0 15.1-.1 2.8 0 2.8-4.4 0-4.4-4.5 0-9 0-13.5.1.6-.3 1.3-.6 1.9-1 3.1-2 5.7-4.8 7.5-8zm14.4-37.9c2.6 1.8 3.5 5.1 3.5 8 0 1.7-.1 3.4-1 4.9-.8 1.5-2 2.8-3.2 4-2.3 2.3-5.4 3.7-8.6 3.2.2-1.5.3-3.1.5-4.6.6-5.8.7-11.7.5-17.5 2.9.1 5.9.3 8.3 2zM50 69.7c-3.4.6-7 .6-10.4.6-3.7-.1-7.5-.1-11.2-.6-3.5-.5-7.1-1.4-10.1-3.3-2.8-1.7-5-4.1-6.8-6.8C7.3 53.2 6 45.5 5.7 38c-.2-4.2-.2-8.4-.1-12.6 0-2.2.1-4.3.2-6.5 0-1 .1-2.1.2-3.1 0-.5.1-1 .1-1.6 0-.4.1-.9.1-1.4h17.3c13.7 0 27.3.1 41 .1h3.3v.2c.1.5.1 1 .2 1.5l.3 3.3c.2 2.1.3 4.2.3 6.4.1 4.2 0 8.5-.2 12.7-.5 7.1-1.1 14.8-3.9 21.4-1.2 2.8-2.9 5.5-5.2 7.5-2.8 2.1-6 3.2-9.3 3.8z"/></svg>