<svg xmlns="http://www.w3.org/2000/svg" viewBox="0 0 90 85"><path d="M4.5 80.5c0 1.3 1 2.3 2.3 2.3h77c1.3 0 2.3-1 2.3-2.3 0-1.3-1-2.3-2.3-2.3H73.1c2-3.3 2-8.1.7-11.6-.4-1-.8-2-1.6-2.6-1-.7-2.1-.6-3.3-.6h-3.3c.3-6.3.3-13.1-1.3-19.3-1.5-5.5-4.9-10.7-10.5-12.6-4.9-1.8-11.1-1.2-15.9.5-4.9 1.8-9.1 5.1-11.2 9.9-3.1 6.6-1.7 13.8-2.7 20.7-.1.4 0 .9.1 1.2h-.4c-1.3 0-2.7-.1-4 .1-1 .2-1.8.8-2.4 1.5-.2.1-.3.3-.4.5-.2.3-.3.5-.3.8-.7 1.9-.8 4.2-.7 6.2 0 1.6.1 3.7.8 5.2H6.8c-1.3 0-2.3 1.1-2.3 2.4m15.8-4.1c-.3-.1 0-.1 0 0m7.6-12.7c.8-5.7-.1-11.6 1.3-17.2 1.1-4.6 3.9-7.9 8.1-10 3.9-1.9 8.9-2.5 13.2-1.7 4.8.9 7.9 4.6 9.3 9.1.9 2.9 1.3 6 1.5 9.1.2 3.5.2 6.9.1 10.4-4.8 0-9.5.1-14.3.2-5.3.1-10.5.1-15.8.2h-3.5l.1-.1m-6 4.2h2.9c2 0 4 0 5.9-.1 4.1 0 8.2-.1 12.2-.1l24.9-.3h1.7c.1.2.2.5.2.5.2.5.3 1 .4 1.5.3 1.6.3 3.2-.2 4.8-.2.6-.4 1.6-.8 2.1 0 0-.1 0-.3.1-.5 0-1.1.1-1.6.1-2 .1-4.1.3-6.1.4-8.3.4-16.5.5-24.8.3-4.6-.1-9.3-.3-13.9-.7-.6 0-1.2-.1-1.8-.1h-.5c-.3-.6-.3-1.5-.3-2.1-.1-1.1-.1-2.2 0-3.2.1-.9 0-2.2.4-3 .4-.3 1.5-.2 1.7-.2m-19.5-26c4.8.2 9.7.2 14.5.1 1.1 0 2-.9 2-2s-.9-2.1-2-2c-4.9 0-9.7 0-14.5-.2-1.1 0-2 1-2 2-.1 1.2.9 2 2 2.1M27 25.2c.7.8 2.1.8 2.9 0 .8-.8.8-2 0-2.9-3-3.2-6-6.3-9-9.4-.7-.8-2.1-.8-2.9 0-.7.8-.8 2.1 0 2.9 3 3.1 6 6.2 9 9.4M43.6 4.3v13.4c0 1.1.9 2.1 2 2 1.1 0 2-.9 2-2V4.3c0-1.1-.9-2.1-2-2-1 0-2 .8-2 2M63.9 25l.3-.3c.2-.2.4-.5.6-.7.4-.4.7-.8 1.1-1.3.8-.9 1.5-1.7 2.3-2.5.8-.8 1.6-1.5 2.4-2.3.4-.4.9-.8 1.3-1.1.2-.2.4-.3.6-.5.1 0 .1-.1.2-.1.1-.1.2-.2.3-.2.4-.3.8-.7.9-1.2.1-.5.1-1.1-.2-1.6-.5-.8-1.9-1.4-2.8-.7-4 3-7.6 6.6-10.6 10.5-.6.8-.2 2.3.7 2.8 1.1.5 2.1.1 2.9-.8-.3.4-.1 0 0 0m8.5 17.4c5.1.1 10.2.1 15.3.2 2.6 0 2.6-4 0-4.1-5.1-.1-10.2-.1-15.3-.2-2.6 0-2.6 4 0 4.1" fill="#666"/></svg>