<svg xmlns="http://www.w3.org/2000/svg" viewBox="0 0 90 85"><g fill-rule="evenodd" clip-rule="evenodd" fill="#666"><path d="M44.8 25.2c-13 .2-24.5 3.1-34.2 8.9-.2.1-.3.2-.5.3-2.2 1.4-4.5 1.5-6.1.3-1.6-1.1-1.3-2.5.9-3.8 6.6-4.1 14.3-7.2 23.1-8.8 21.6-4 40.8-.9 57.3 9 2.1 1.2 2.2 2.6.6 3.7-1.5 1.1-3.8 1-5.8-.2-.3-.2-.5-.3-.8-.5-9.7-5.9-21.3-8.8-34.5-8.9z"/><path d="M45.8 35.8c-10 .2-18.8 3.1-26.2 8.9-.1.1-.3.2-.4.3-1.7 1.4-3.5 1.5-4.7.3-1.2-1.1-1-2.5.7-3.8 5.1-4.1 11-7.2 17.8-8.8 16.6-4 31.3-.9 44 9 1.6 1.2 1.7 2.6.5 3.7s-2.9 1-4.5-.2c-.2-.2-.4-.3-.6-.5-7.5-5.9-16.4-8.7-26.6-8.9z"/><path d="M45.9 46.4c-6.8.2-12.8 2.7-17.8 8l-.3.3c-1.2 1.2-2.4 1.3-3.2.3-.8-1-.7-2.2.5-3.5 3.5-3.7 7.5-6.5 12.1-8 11.2-3.5 21.2-.8 29.8 8.1 1.1 1.1 1.2 2.4.3 3.4-.8 1-2 .9-3-.2-.1-.1-.3-.3-.4-.5-5.1-5.2-11.1-7.7-18-7.9z"/><path d="M45.5 56.8c-4.5.2-8.5 2.4-11.8 6.8-.1.1-.1.2-.2.2-.8 1-1.6 1.1-2.1.3-.6-.9-.5-1.9.3-2.9 2.3-3.2 4.9-5.5 8-6.7 7.5-3 14.1-.7 19.8 6.8.7.9.8 2 .2 2.8-.5.8-1.3.8-2-.1-.1-.1-.2-.3-.3-.4-3.4-4.5-7.3-6.6-11.9-6.8z"/></g></svg>