<svg xmlns="http://www.w3.org/2000/svg" viewBox="0 0 90 85"><path fill="#676464" d="M76.2 65.4c-1.4-5.5-5.8-6.5-9.9-6.6L65 43.4c-.2-2.4-.5-5.9-2.9-8.3-1.6-1.5-3.6-2.2-5.4-2.7-.8-.2-1.6-.4-2.5-.6.9-1.1 1.6-2.6 2.2-4.3 1.5-4.2 1.9-8.3 1.1-12-.9-4.4-3.5-8.2-6.9-10.2-4-2.3-9-2.2-12.5.4s-4.9 7-5.7 10.5c-.7 3.2-1.3 7.5.2 11.3.6 1.6 1.9 3.2 3.5 4.4-1.7.4-3.5.9-4.9 1.3-1.5.4-3.2 1-4.7 2.2-1.2 1-1.9 2.3-2.5 3.4-3.4 6.9-3.5 15-3.2 21.8-.7.3-1.4.6-2 1-2.1 1.2-3.7 3.3-4.6 6-1.2 3.6-1.3 6.3-.3 8.3.6 1.2 1.7 2.2 3.1 2.8 4.2 2 9.2 2 13.6 2h.4c4.1 0 8.2.1 12.2.2 2.1.1 4.1.1 6.2.1l9.2.2c.9 0 1.7 0 2.6.1 1.3 0 2.6.1 4 .1.8 0 1.6 0 2.3-.1 3-.2 5.4-1.1 6.9-2.8 1.8-2.1 2.2-4.8 2.3-7.5 0-1.7 0-3.7-.5-5.6M35.9 26.2c-1.2-3-.6-6.5 0-9.3.6-2.9 1.7-6.5 4.3-8.4 1.2-.9 2.8-1.3 4.4-1.3 1.5 0 3 .4 4.3 1.2 2.6 1.5 4.6 4.5 5.3 7.9.6 3 .3 6.5-1 10.1-.5 1.3-1 2.3-1.5 3.1-.6.8-1.2 1.4-1.9 1.7-1.9 1-5.1.9-8.1-.2-2.8-1.2-5-3-5.8-4.8m-8.6 14.1c.4-.7.9-1.7 1.6-2.3.9-.8 2.1-1.1 3.3-1.5 2.6-.7 6.1-1.7 9-2.1 1.8.6 3.6.9 5.3.9 1.5 0 2.9-.2 4.1-.7 1.8.3 3.5.7 5.2 1.2.3.1.6.2.8.2-1.4 1.2-2.7 2.4-4 3.6-4.7 4.3-9.2 8.4-14.7 10.9-.8.4-1.6.7-2.4 1v-2c0-.7.1-2.5.5-3.6.3-.9-.2-1.9-1.1-2.2-.9-.3-1.9.2-2.2 1.1-.7 2-.7 4.7-.7 4.7v2.9c-2.5.5-5 .7-7.5.5.2-4.3.9-8.7 2.8-12.6m-.8 16.2c4.4 0 8.8-.9 12.9-2.8 6-2.7 10.9-7.2 15.6-11.5 1.6-1.5 3.2-3 4.9-4.4 1.1 1.4 1.4 3.5 1.6 5.8l1.3 15.2h-1.1c-2.9.1-5.8.2-8.7.2h-5.9c-4.5 0-9.1 0-13.6.1h-1c-1.1 0-2.2 0-3.4.1-1.5.1-3 .2-4.6.5 0-1.1-.1-2.2-.1-3.3.7.1 1.4.1 2.1.1m16.8 20.9c-4-.1-8.2-.2-12.3-.2h-.3c-4 0-8.6 0-12.1-1.6-.7-.3-1.2-.8-1.4-1.2-.4-.7-.6-2.3.5-5.6.4-1.3 1.3-3.1 3.1-4.1 1.2-.7 2.6-1.1 4.1-1.4 1.5-.3 3-.4 4.5-.5 1-.1 2.1-.1 3.2-.1h3.2c2.9.8 5.4 3.2 6.7 6.6 1 2.5 1.3 5.3 1.5 8.2-.3-.1-.5-.1-.7-.1m29.8-6.6c-.1 2.3-.3 4.1-1.4 5.3-1.1 1.2-3 1.6-4.4 1.7-2 .1-4 0-6 0-.9 0-1.8-.1-2.7-.1l-9.2-.2h-2c-.1-3.3-.5-6.5-1.7-9.6-.8-2.1-2-3.9-3.4-5.4h10.8c2.9 0 5.9-.1 8.7-.1h1.9c5.1-.1 8.2 0 9.2 3.9.3 1.4.3 3 .2 4.5"/></svg>