<svg xmlns="http://www.w3.org/2000/svg" viewBox="0 0 90 85"><path fill="#676464" d="M72.9 38.2c-2-1.3-5-1.4-7.3-.4-.2-5.1.4-10.3.4-15.4 0-1-.8-1.7-1.7-1.8-5-.5-10-.5-14.9-.6.6-2.6.1-5.5-1.5-7.6-2.1-3-5.5-4.6-8.9-4.9-3.4-.3-6.8 1-8.3 4.5-1 2.3-.9 5-.5 7.5-3 0-6 0-9 .1-1.8 0-3.7 0-5.5.2-1.4.1-2.7.9-3.4 2.2-.6 1.1-.5 2.5-.5 3.8 0 1.8.1 3.6.2 5.4.2 3.6.6 7.3 1.2 10.9.2 1.2 1.6 1.6 2.5 1.1 2.5-1.6 5.4-2.8 8.4-1.6 2.3.9 3.9 3.2 4.1 5.8.1 2.9-1 5-3.7 5.8-3.4 1.1-6.6-.5-9.5-2.4-1.2-.8-2.5.3-2.6 1.6-.5 7.5-.4 15.1-.4 22.7 0 1 .8 1.8 1.7 1.8 9.4.2 18.8.3 28.2.5 4.7.1 9.3.1 14 .2 2.3 0 4.7.1 7 .1 1.8 0 3.2-.7 4-2.4.1-.2.2-.4.2-.6.1-.3.1-.6.1-.8.2-2.3.1-4.7.2-7 0-2.7.1-5.4.2-8.1v-2.3c.4.1.9 0 1.1.1.6.1 1.2.2 1.8.2 1.9.1 3.8-.4 5.3-1.6 1.1-1 2-2.1 2.2-3.6.1-1.3 0-2.7-.1-4-.3-4-1.8-7.4-5-9.4m1.8 12.9c0 .3-.5.8-1 1.2-1.8 1.4-4.1.5-6.1.4-2.4-.2-3.3 1.4-3.3 3.6-.1 2.8-.1 5.6-.2 8.4 0 1.4-.1 2.8-.1 4.2 0 1.6.1 3.3-.1 4.8-.2.7-1.6.3-2.1.3-1.1 0-2.2 0-3.2-.1-2 0-4.1-.1-6.1-.1-4.4-.1-8.7-.1-13.1-.2-8-.1-15.9-.3-23.9-.4 0-6 0-12 .3-17.9 3.2 1.7 6.9 2.4 10.4 1 3.7-1.5 5.6-4.9 5.5-9-.2-3.9-2.4-7.4-5.8-8.9-3.2-1.5-6.5-1-9.6.5-.3-2.2-.5-4.4-.7-6.6-.1-1.5-.2-3.1-.3-4.6 0-1.1-.3-2.5 0-3.6s2-.7 2.9-.8c1.6-.1 3.1-.1 4.7-.1 3.1-.1 6.3-.1 9.4 0 1.2 0 1.9-1.2 1.6-2.3-.4-2-.8-4.3-.4-6.4.6-2.6 2.6-3.5 5-3.3 2.2.2 4.6 1.1 6.1 2.8 1.7 1.9 2 4.8.6 7-.8 1.2.3 2.7 1.5 2.7 5.3.2 10.6.1 15.8.5 0 5.8-.7 11.8.2 17.6.2 1.6 2.5 1.7 3.1.4.7-1.3 2.8-1.8 4.2-1.5 2 .4 3.5 2.5 4.2 4.3.5 1.2.5 2.5.5 3.7 0 .8.1 1.7 0 2.4"/></svg>