<svg id="Layer_1" data-name="Layer 1" xmlns="http://www.w3.org/2000/svg" viewBox="0 0 48 48"><defs><style>.cls-1{fill:#666565}.cls-2{fill:none;stroke:#666;stroke-linecap:round;stroke-linejoin:round;stroke-width:1.5px}</style></defs><path class="cls-1" d="M41.89 20.56c1.93 0 1.93-3 0-3s-1.93 3 0 3z"/><path class="cls-2" d="M6.27 6.91c.26 10.62-.2 21.24.06 31.86.02.83.06 1.72.52 2.39.76 1.12 2.28 1.2 3.59 1.17 9.79-.22 14.59.06 24.38-.16.63-.01 1.33-.05 1.8-.49.62-.56.63-1.55.59-2.4-.43-10.08.33-20.67-.1-30.75-.04-.87-.09-1.8-.6-2.49-.74-1.01-2.14-1.12-3.36-1.14-9.6-.16-14.7-.04-24.29.34-.59.02-1.21.06-1.73.36s-.88.95-.87 1.32zm3.53 35.5l-.11 2.19c0 .16-.01.33.09.44.11.13.3.13.47.13 2.11-.02 23.97-.06 23.97-.23 0-.71.01-1.42.02-2.13"/><path class="cls-2" d="M37.19 9.02c-.29-.99-.03-2.13.66-2.9s1.78-1.16 3-.84c.44 12.06.46 24.14.11 36.2v-.05m-3.66-2.45c0 .73.02 1.54.53 2.07.37.38.92.53 1.45.57s1.07-.03 1.6-.03h.02M6.43 17.52c10.13 0 20.26.02 30.39.02m-26.43-.05l-.14-8.15c0-.17 0-.36.1-.5.13-.19.39-.23.62-.25 1.33-.14 2.67-.24 4.01-.3.43-.02.9-.02 1.25.24.49.36.55 1.05.56 1.66l.15 7.18m-6.68-5.08l6.13-1.73m-5.44 4.57c2.05-.57 4.04-1.34 5.94-2.29m3.53 4.32c.13-2.65-.05-5.16.08-7.81.02-.35.05-.74.29-.99.25-.26.64-.3.99-.32 1.15-.08 2.3-.17 3.45-.25.5-.04 1.08-.05 1.43.31.31.31.34.79.35 1.23.06 2.52.13 5.03.19 7.55m-6.41-5.22c2.17-.58 4.07-.94 6.24-1.52m-6.24 4.6c2.27-.34 4.12-.71 6.24-1.59m-12.4 28.48c.02-3.74.03-7.48.05-11.22 0-.78.01-1.58.31-2.3s.98-1.34 1.76-1.33m3.45-.29c.65.02 1.2.55 1.45 1.16s.25 1.28.25 1.93c0 4.02-.01 8.03-.02 12.05m-5.09-15.01l2.77-.15m-3.38.07l-.22-2.09c0-.07-.01-.15.03-.21.05-.07.15-.09.23-.09 1.2-.11 2.42-.11 3.62 0 .11.01.23.03.3.11.09.09.09.23.08.35l-.06 1.8M31.89 41.3c-.02-3.74-.03-9.59-.05-13.33 0-.78-.01-1.58-.31-2.3s-.98-1.34-1.76-1.33m-3.45-.29c-.65.02-1.2.55-1.45 1.16s-.25 1.28-.25 1.93c0 4.02.01 10.14.02 14.16m5.09-17.11l-2.77-.15m3.38.07l.22-2.09c0-.07.01-.15-.03-.21-.05-.07-.15-.09-.23-.09-1.2-.11-2.42-.11-3.62 0-.11.01-.23.03-.3.11-.09.09-.09.23-.08.35l.06 1.8m3.41-6.82l.17-6.08 3.24.1c.18 0 .37.02.5.14.13.13.14.33.15.51l.18 5.06"/></svg>