<svg id="Layer_1" data-name="Layer 1" xmlns="http://www.w3.org/2000/svg" viewBox="0 0 48 48"><defs><style>.cls-1{fill:none;stroke:#666;stroke-linecap:round;stroke-linejoin:round;stroke-width:1.5px}</style></defs><path class="cls-1" d="M18.55 5.1c-.67 1.48.07 3.26 1.15 4.44s2.5 2.01 3.59 3.19c2.69 2.88 3.03 7.28 2.82 11.27-.22 3.99-.93 15.55.36 19.24-1 .28-2.02.23-3.02.51-1.22-3.57-.46-14.58-.2-18.36.26-3.78-.01-7.96-2.54-10.71-1.13-1.23-2.63-2.07-3.69-3.37-1.61-1.98-1.95-4.96-.82-7.26 1-.2 2.09.22 2.35 1.05z"/><path class="cls-1" d="M15.62 4.22C10.46 7.8 6.65 18.01 3.11 24.33c2.52 1.03 4.78 2.6 7.28 3.7.84-1.65 4.31-9.37 5.16-11.02m8.31-4.29c2.32-2.2 4.13-4.97 5.24-8.01"/><path class="cls-1" d="M25.27 14.88c3.28-2.31 5.62-5.99 6.42-10a4.12 4.12 0 0 0-2.47-.58m-14.2 13.79c2.25 8.22-.49 17.7-.49 25.59 3 .23 6.04.95 8.92.07m8.28-38.71c4.22 2.6 9.99 11.89 13.16 16.34-1.62 1.47-4.1 2.8-5.74 4.22-.73-1.37-4.92-8.08-6.1-9.06m.51.52c-1.26 8.39 2.49 19.69 2.49 26.18m-12.52 1.01c3.86-.5 12.52-.81 12.52-1.01M14.32 28.19c6.79.86 13.71.58 20.41-.81M18.44 4.56c3.42.56 6.93.52 10.34-.13"/></svg>